<svg xmlns="http://www.w3.org/2000/svg" id="SvgjsSvg70427" width="3366.4848327332475" height="4096" version="1.1" xmlns:xlink="http://www.w3.org/1999/xlink" xmlns:svgjs="http://svgjs.com/svgjs"><defs id="SvgjsDefs70428"></defs><g id="SvgjsG70429" transform="translate(328, 328) scale(34.4)" opacity="1"><defs id="SvgjsDefs17765"></defs><g id="SvgjsG17766" transform="scale(0.35100035100035104)" opacity="1"><g id="SvgjsG17767" class="D2VF0THh2" transform="translate(33.96477707880503, 1.4210854715202004e-14) scale(1.7795013927544758)" light-content="false" non-strokable="false" fill="#4a90e2"><path d="M44 0l43.301 25v50L44 100 .699 75V25z"></path></g><g id="SvgjsG17768" class="Ab5auhjJN6" transform="translate(54.794181557843864, 31.50641283556576) scale(1.14822491113203)" light-content="true" non-strokable="false" fill="#ffffff"><path d="M94.5 51.9l1.6-1.9-1.9 1.6H88c0-.4-.2-.8-.5-1.1-2.9-3-6.6-4.5-9.9-3.8-.9.2-2.1.7-3.5 1.7l-10.2.1h-.8c-.1 0-.2-.1-.2-.2v-5.2c-.1-.8-.3-1.6-.6-2.3-.3-.7-.8-1.4-1.4-1.9-.6-.6-1.2-1-1.9-1.3-.7-.3-1.5-.5-2.3-.6h-3.4c-.2 0-.4 0-.6.1-.5-.1-.7-.1-.9-.1-.2 0-.4.1-.6.2-1.5.5-2.8 1.5-3.6 2.8-.4.7-.7 1.4-.9 2.1 0 .2-.1.4-.1.6v1.5l.1 5.1.2 10.2v2.1c0 .2-.1.4-.3.6-.2.2-.4.3-.7.3H42c-.1 0-.2-.1-.4-.2l-.3-.3c-.1-.1-.1-.2-.2-.4v-3.4L40.6 48l-.1-5.1v-5.2c-.1-1.3-.7-2.6-1.7-3.5-.5-.5-1-.8-1.6-1.1-.6-.3-1.2-.5-1.9-.5h-6.6c-.6 0-1.3.2-1.9.4-1.2.5-2.1 1.4-2.7 2.5-.3.6-.5 1.2-.6 1.8v4l.2 10.2.1 5.1v1.2c0 .3 0 .5-.1.8-.2.5-.5 1-1 1.3-.2.1-.5.2-.8.3H21c-.6-.1-1.1-.3-1.5-.8-.4-.4-.6-1-.7-1.6v-7.9c-.1-.5-.3-1.1-.5-1.5-.3-.5-.6-.9-1-1.2-.4-.4-.9-.6-1.4-.8-.5-.2-1-.3-1.6-.3h-2.6c-.9 0-1.7.1-2.6.2-.9.1-1.7.2-2.6.2-.4 0-.9.1-1.3.1l-.6.1h-.3c-.1 0-.1 0-.2.1 0 0-.1 0-.1.1v.4l.1.1c.1 0 .1 0 .2.1h.3l.6.1c.4 0 .9.1 1.3.1.9.1 1.7.2 2.6.2.8.1 1.6.1 2.5.1h2.5c.6 0 1.3.3 1.7.7.2.2.4.5.6.7l.3.9v7.6c0 1.1.4 2.2 1.1 3.1.7.9 1.8 1.5 2.9 1.7 1.1.2 2.3 0 3.3-.5 1-.6 1.8-1.5 2.2-2.6.2-.5.3-1.1.3-1.7v-1.3l.1-5.1.2-10.2v-3.6c0-.2.1-.4.2-.6.2-.4.6-.7 1-.8.2-.1.4-.1.6-.1h6.1c.4.1.8.3 1 .5.1.1.2.3.3.5.1.2.1.4.1.6V48l-.2 10.2V62c0 .2 0 .4.1.5.1.7.4 1.4.8 2 .4.6.8 1.2 1.4 1.6.5.5 1.2.8 1.9 1.1.1 0 .2.1.3.1l.3.1.3.1h5.3c.7 0 1.5-.1 2.1-.4.7-.2 1.3-.6 1.9-1.1 1.1-.9 1.9-2.3 2.2-3.7 0-.2.1-.4.1-.5v-2.6l.2-10.2.1-5.1v-.5c0-.1.1-.1.1-.2.1-.1.2-.2.4-.2h2.8c.1 0 .1 0 .2.1.1 0 .1.1.1.1s.1.1.1.2v5.2c0 .8.2 1.6.5 2.3.6 1.5 1.8 2.7 3.2 3.5l.6.3c.2.1.4.1.6.2.2.1.4.1.6.2.2 0 .4.1.6.1.2 0 .4 0 .6.1h1.1l9.6.1c1.3 1 2.6 1.4 3.5 1.6 3.4.7 7-.8 9.9-3.8.3-.3.5-.7.5-1.1h6.2l1.9 1.6-1.5-1.8zM84 55.4c-.4 0-.7-.3-.7-.7 0-.4.3-.7.7-.7.4 0 .7.3.7.7-.1.4-.4.7-.7.7zm0-5.7c-.4 0-.7-.3-.7-.7 0-.4.3-.7.7-.7.4 0 .7.3.7.7-.1.4-.4.7-.7.7z"></path></g><g id="SvgjsG17769" class="text" transform="translate(110.53, 281.5101392754476) scale(1)" light-content="false" fill="#0d0d0d"><path d="M-75.11 -68.14C-84.41 -68.14 -92.63 -64.71 -99.79 -57.86C-106.95 -51.01 -110.53 -42.2 -110.53 -31.44C-110.53 -20.69 -107.6 -12.39 -101.76 -6.56C-95.91 -0.72 -87.98 2.19 -77.97 2.19C-71.73 2.19 -66.11 0.92 -61.09 -1.61C-58.99 -2.66 -56.74 -4.03 -54.32 -5.73C-51.91 -7.43 -50.7 -8.67 -50.7 -9.47C-50.7 -10.72 -51.13 -11.34 -51.98 -11.34C-52.37 -11.34 -52.94 -11.17 -53.68 -10.84C-60.22 -7.81 -66.63 -6.29 -72.92 -6.29C-79.57 -6.29 -85.04 -8.22 -89.34 -12.08C-91.33 -13.85 -93.02 -15.92 -94.41 -18.31C-95.81 -20.69 -96.83 -23.23 -97.49 -25.92C-98.16 -28.61 -98.49 -32.08 -98.49 -36.33C-98.49 -40.57 -97.21 -45.1 -94.64 -49.9C-93.34 -52.32 -91.82 -54.47 -90.07 -56.35C-88.32 -58.23 -86.23 -59.72 -83.82 -60.84C-81.41 -61.96 -78.94 -62.51 -76.42 -62.51C-73.89 -62.51 -71.76 -62.11 -70.02 -61.31C-69.31 -60.96 -68.64 -60.45 -68.02 -59.78C-67.4 -59.12 -66.9 -58.51 -66.53 -57.94C-66.16 -57.38 -65.78 -56.61 -65.39 -55.65C-65 -54.68 -64.71 -53.85 -64.5 -53.14C-64.29 -52.44 -64.01 -51.5 -63.65 -50.33C-63.29 -49.16 -62.92 -48.02 -62.53 -46.92C-62.15 -45.81 -61.12 -45.26 -59.45 -45.26C-57.78 -45.26 -56.14 -45.9 -54.51 -47.16C-52.88 -48.43 -52.07 -49.83 -52.07 -51.34C-52.07 -54.29 -53.21 -57.08 -55.5 -59.7C-57.79 -62.32 -60.71 -64.38 -64.25 -65.89C-67.8 -67.39 -71.42 -68.14 -75.11 -68.14Z M10.61 -45.43C10.61 -51.11 9.62 -55.72 7.63 -59.25C6.56 -61.18 5.16 -62.78 3.45 -64.07C1.74 -65.35 -0.42 -66.35 -3.04 -67.07C-5.66 -67.78 -9.03 -68.14 -13.16 -68.14C-17.28 -68.14 -21.62 -66.83 -26.17 -64.21C-28.46 -62.91 -30.51 -61.38 -32.33 -59.6C-34.15 -57.82 -35.62 -55.69 -36.72 -53.23C-37.82 -50.76 -38.37 -48.3 -38.37 -45.86C-38.37 -43.42 -37.86 -42.2 -36.84 -42.2C-36.4 -42.2 -34.99 -42.81 -32.62 -44.02C-30.25 -45.23 -28.52 -46.21 -27.43 -46.96C-26.34 -47.7 -25.8 -49.45 -25.8 -52.21C-25.8 -54.97 -25.53 -57.07 -24.99 -58.52C-24.45 -59.97 -23.24 -61.09 -21.35 -61.87C-19.46 -62.66 -17.13 -63.05 -14.36 -63.05C-11.58 -63.05 -9.3 -62.39 -7.51 -61.07C-6.54 -60.38 -5.7 -59.67 -4.99 -58.94C-4.27 -58.2 -3.7 -57.2 -3.27 -55.92C-2.84 -54.63 -2.5 -53.5 -2.23 -52.52C-1.97 -51.54 -1.79 -50.21 -1.68 -48.51C-1.57 -46.81 -1.5 -45.43 -1.47 -44.35C-1.44 -43.28 -1.43 -41.91 -1.43 -40.26C-1.43 -38.6 -1.7 -37.72 -2.25 -37.61C-8.24 -36.56 -14.71 -34.86 -21.66 -32.52C-26.02 -31.03 -30.28 -28.52 -34.44 -24.99C-38.64 -21.43 -40.73 -17.11 -40.73 -12.04C-40.73 -7.52 -39.2 -3.9 -36.14 -1.18C-33.08 1.54 -28.82 2.9 -23.35 2.9C-17.89 2.9 -10.97 0.29 -2.59 -4.92C-1.65 -5.53 -1.06 -5.46 -0.81 -4.72C-0.64 -4.25 -0.44 -3.64 -0.21 -2.9C0.03 -2.15 0.23 -1.56 0.39 -1.12C0.56 -0.68 0.83 -0.14 1.2 0.5C1.57 1.13 1.97 1.63 2.38 2.01C2.79 2.38 3.35 2.7 4.05 2.98C4.76 3.25 5.61 3.39 6.6 3.39C7.59 3.39 9.21 2.58 11.44 0.95C13.67 -0.68 15.64 -2.11 17.34 -3.35C19.03 -4.59 20.26 -5.5 21.02 -6.08C21.78 -6.66 22.16 -7.11 22.16 -7.43C22.16 -7.74 21.8 -8.34 21.1 -9.21C20.4 -10.07 19.93 -10.51 19.71 -10.51C19.49 -10.51 18.4 -9.81 16.42 -8.4C14.45 -6.99 13.29 -6.29 12.93 -6.29C12.57 -6.29 12.24 -6.36 11.94 -6.5C10.39 -7.24 9.62 -8.69 9.62 -10.84ZM-27.86 -16.8C-27.86 -24.85 -19.81 -30.45 -3.7 -33.59C-2.71 -33.79 -2.08 -33.88 -1.82 -33.88C-1.56 -33.88 -1.43 -33.43 -1.43 -32.52L-1.43 -10.34C-1.43 -9.3 -4.45 -8.03 -10.49 -6.54C-13.05 -5.9 -15.38 -5.59 -17.46 -5.59C-19.54 -5.59 -21.4 -6.16 -23.04 -7.32C-24.69 -8.48 -25.9 -9.89 -26.69 -11.56C-27.47 -13.23 -27.86 -14.98 -27.86 -16.8Z M37.88 -59.66L38.46 -59.66C38.79 -59.66 39.08 -59.58 39.32 -59.41C39.52 -59.27 39.66 -59.05 39.76 -58.73C39.86 -58.41 40.02 -55.37 40.26 -49.61C40.49 -43.84 40.61 -34.93 40.61 -22.86C40.61 -10.79 40.44 -4.76 40.11 -4.76L31.63 -4.76C30.55 -4.76 29.86 -4.54 29.54 -4.12C29.22 -3.69 29.06 -2.97 29.06 -1.94C29.06 -0.92 29.17 -0.21 29.4 0.21C29.62 0.62 30.2 0.83 31.13 0.83L46.69 0.5L61.29 0.83C62.15 0.83 62.7 0.6 62.95 0.14C63.2 -0.31 63.32 -1.06 63.32 -2.09C63.32 -3.12 63.22 -3.83 63.01 -4.2C62.8 -4.57 62.23 -4.76 61.29 -4.76L54.01 -4.76C53.43 -4.76 53.14 -14.87 53.14 -35.08L53.14 -63.88C53.14 -64.49 53.05 -64.89 52.87 -65.1C52.7 -65.31 52.22 -65.41 51.45 -65.41L32.29 -64.58C31.19 -64.58 30.45 -64.5 30.08 -64.33C29.71 -64.17 29.31 -63.51 28.88 -62.35C28.45 -61.19 28.24 -60.4 28.24 -59.97C28.24 -59.54 28.75 -59.33 29.77 -59.33ZM39.57 -88.19C41.03 -86.9 42.94 -86.26 45.3 -86.26C47.66 -86.26 49.98 -87.21 52.25 -89.1C54.53 -90.99 55.67 -93.36 55.67 -96.23C55.67 -101.12 52.76 -103.56 46.94 -103.56C44.1 -103.56 41.52 -102.07 39.2 -99.09C37.99 -97.52 37.38 -95.63 37.38 -93.42C37.38 -91.21 38.11 -89.47 39.57 -88.19Z M79.7 -46.75L79.37 -10.01C79.37 -7.03 80.24 -4.39 81.98 -2.07C82.92 -0.83 84.25 0.17 85.97 0.91C87.7 1.65 89.83 2.03 92.36 2.03C94.9 2.03 98.48 1.15 103.1 -0.6C107.72 -2.35 110.64 -3.68 111.85 -4.57C113.06 -5.47 113.72 -6.01 113.82 -6.19C113.91 -6.36 113.96 -6.99 113.96 -8.05C113.96 -9.11 113.72 -9.64 113.24 -9.64C112.75 -9.64 111.8 -9.41 110.38 -8.96C108.96 -8.5 107.22 -8.05 105.17 -7.61C103.11 -7.17 100.95 -6.95 98.67 -6.95C96.4 -6.95 94.46 -7.78 92.86 -9.43C92.01 -10.32 91.58 -12.83 91.58 -16.96L91.58 -49.48C91.58 -54.34 91.8 -56.76 92.24 -56.76L108.33 -56.76C109.08 -56.76 109.64 -56.98 110.01 -57.4C110.38 -57.83 110.73 -58.76 111.07 -60.18C111.4 -61.6 111.56 -62.38 111.56 -62.51C111.56 -63.2 111.18 -63.55 110.4 -63.55L92.94 -63.55C92.25 -63.55 91.85 -63.6 91.74 -63.69C91.63 -63.79 91.58 -64.14 91.58 -64.75L92.57 -81.01C92.57 -82.36 91.95 -83.04 90.71 -83.04C89.91 -83.04 89.18 -82.52 88.52 -81.5L73.08 -59.99C72.53 -59.44 72.26 -58.87 72.26 -58.29C72.26 -57.16 72.71 -56.6 73.62 -56.6L77.84 -56.6C79.08 -56.6 79.7 -53.32 79.7 -46.75Z"></path></g></g></g></svg>